<?xml version="1.0" standalone="no"?>
<!DOCTYPE svg PUBLIC "-//W3C//DTD SVG 20010904//EN"
 "http://www.w3.org/TR/2001/REC-SVG-20010904/DTD/svg10.dtd">
<svg version="1.0" xmlns="http://www.w3.org/2000/svg"
 width="45.000000pt" height="46.000000pt" viewBox="0 0 45.000000 46.000000"
 preserveAspectRatio="xMidYMid meet">
<metadata>
Created by potrace 1.10, written by Peter Selinger 2001-2011
</metadata>
<g transform="translate(0.000000,46.000000) scale(0.100000,-0.100000)"
fill="#000000" stroke="none">
<path d="M33 372 c3 -52 14 -112 27 -148 12 -32 23 -69 23 -81 1 -11 5 -19 8
-17 4 2 12 -3 18 -10 10 -11 7 -25 -14 -65 -14 -28 -21 -51 -16 -51 5 0 18 18
28 40 10 21 23 39 28 38 29 -2 35 4 35 35 -1 17 5 72 12 120 13 86 13 87 24
52 6 -19 7 -38 3 -41 -5 -3 -9 -11 -8 -17 0 -9 2 -9 6 0 6 15 73 -32 73 -52 0
-6 12 -17 27 -24 22 -10 29 -9 42 3 8 9 11 16 6 16 -6 0 -10 47 -10 113 0 103
-2 115 -24 145 -28 36 -62 42 -99 16 -12 -8 -22 -12 -22 -8 0 3 -7 1 -15 -6
-8 -7 -15 -20 -15 -29 1 -11 5 -8 15 9 9 16 14 19 15 10 0 -9 -4 -20 -9 -25
-5 -6 -12 -44 -16 -85 -3 -41 -8 -92 -10 -113 -6 -71 -26 -62 -49 23 -8 30
-15 46 -15 34 -1 -18 17 -78 45 -149 7 -20 7 -20 -15 -1 -12 11 -19 26 -16 33
3 9 0 11 -6 7 -8 -4 -9 1 -4 17 3 13 3 19 -2 12 -10 -14 -16 57 -17 190 -1 57
-5 97 -11 97 -10 0 -11 -174 -1 -212 2 -10 0 -18 -5 -18 -5 0 -10 17 -11 38
-6 135 -13 192 -22 192 -5 0 -6 -38 -3 -88z m277 38 c9 -16 8 -20 -7 -20 -33
0 -46 -15 -34 -38 13 -24 41 -19 41 7 -1 14 -2 14 -14 -2 -12 -15 -14 -16 -20
-2 -7 18 16 30 40 21 14 -5 16 -16 10 -68 -3 -34 -8 -63 -10 -65 -2 -2 -17 -8
-35 -13 -28 -8 -33 -6 -45 18 -19 38 -24 78 -8 75 14 -3 16 33 2 42 -33 20 17
93 51 74 10 -5 23 -18 29 -29z m10 -190 c0 -5 -1 -11 -2 -12 -1 -2 4 -13 11
-26 12 -22 11 -23 -11 -20 -13 2 -22 8 -21 13 0 6 -3 18 -8 27 -6 11 -5 18 4
21 20 9 27 8 27 -3z"/>
<path d="M240 270 c0 -5 9 -10 21 -10 11 0 17 5 14 10 -3 6 -13 10 -21 10 -8
0 -14 -4 -14 -10z"/>
<path d="M96 429 c-3 -17 -5 -59 -5 -93 2 -55 3 -52 9 29 8 95 7 116 -4 64z"/>
<path d="M381 448 c0 -7 4 -22 9 -33 7 -17 9 -17 9 -2 1 21 21 23 21 2 0 -13
2 -14 14 -3 18 17 11 28 -20 28 -14 0 -22 4 -19 10 3 6 1 10 -4 10 -6 0 -11
-6 -10 -12z"/>
<path d="M435 260 c3 -5 8 -10 11 -10 2 0 4 5 4 10 0 6 -5 10 -11 10 -5 0 -7
-4 -4 -10z"/>
</g>
</svg>
